<svg width="50" height="50" viewBox="0 0 50 50" fill="none" xmlns="http://www.w3.org/2000/svg">
  <g transform="translate(0,8.5)">
    <path d="M49.9994 15.8871C49.9994 15.8871 45.192 23.4867 37.7038 28.2218C30.2156 32.957 24.4453 32.7994 24.4453 32.7994V26.817C24.4453 26.817 34.5173 25.2958 34.5173 15.8871C34.5173 6.47846 24.9302 6.38938 24.9302 6.38938L24.8194 0.112373C24.8194 0.112373 30.2087 -0.846994 38.4727 3.94984C43.3898 6.75663 47.3901 10.8995 49.9994 15.8871Z" fill="url(#fg)"/>
    <path d="M25.167 21.5131L29.7319 18.82L29.6696 13.5641L25.1878 16.2023L25.167 21.5131Z" fill="#7DC242"/>
    <path d="M25.1873 16.2025L29.6691 13.5642L25.021 10.9945L20.4561 13.6876L25.1873 16.2025Z" fill="#CBDB2A"/>
    <path d="M20.4561 13.6875L20.5184 18.9435L25.1665 21.5132L25.1873 16.2024L20.4561 13.6875Z" fill="#A4D178"/>
  </g>
  <defs>
    <radialGradient id="fg" cx="0" cy="0" r="1" gradientUnits="userSpaceOnUse" gradientTransform="translate(-886.997 -1264.3) rotate(180) scale(1751.86 1748.95)">
      <stop offset="0.05" stop-color="#B9D877"/>
      <stop offset="1" stop-color="#32B44A"/>
    </radialGradient>
  </defs>
</svg>
