<svg width="502" height="148" viewBox="0 0 502 148" fill="none" xmlns="http://www.w3.org/2000/svg">
<path d="M19.1373 114.348C18.6689 113.551 18.0075 112.973 17.1533 112.616C16.2991 112.231 15.3622 112.038 14.3426 112.038C13.7364 112.038 13.1302 112.107 12.524 112.244C11.9453 112.382 11.408 112.602 10.912 112.904C10.416 113.207 9.98887 113.606 9.63065 114.1C9.29998 114.568 9.09331 115.132 9.01065 115.792C8.87287 116.782 9.10709 117.538 9.71331 118.06C10.3195 118.583 11.1049 119.037 12.0693 119.422C13.0613 119.807 14.1222 120.178 15.252 120.535C16.4093 120.893 17.4564 121.388 18.3933 122.02C19.3577 122.653 20.1017 123.492 20.6253 124.537C21.1764 125.582 21.328 126.97 21.08 128.703C20.8595 130.27 20.3773 131.645 19.6333 132.828C18.8893 133.983 17.9662 134.945 16.864 135.715C15.7893 136.485 14.5769 137.063 13.2266 137.448C11.8764 137.833 10.4849 138.025 9.05198 138.025C7.23332 138.025 5.52488 137.723 3.92666 137.118C2.32844 136.513 1.01955 135.495 0 134.065L4.46399 130.27C4.98755 131.233 5.71777 131.989 6.65465 132.539C7.6191 133.061 8.67998 133.323 9.83731 133.323C10.4435 133.323 11.0498 133.24 11.656 133.075C12.2898 132.91 12.8684 132.663 13.392 132.333C13.9431 132.003 14.4115 131.59 14.7973 131.095C15.1831 130.573 15.4311 129.981 15.5413 129.321C15.6791 128.249 15.4449 127.424 14.8386 126.847C14.2324 126.269 13.4333 125.788 12.4413 125.403C11.4769 124.99 10.416 124.605 9.25865 124.248C8.12887 123.89 7.09554 123.409 6.15865 122.804C5.22177 122.172 4.47777 121.347 3.92666 120.329C3.37555 119.284 3.22399 117.895 3.47199 116.163C3.69244 114.65 4.18844 113.344 4.95999 112.244C5.73154 111.144 6.66843 110.237 7.77065 109.522C8.90043 108.779 10.1404 108.229 11.4906 107.872C12.8409 107.514 14.1911 107.336 15.5413 107.336C17.0844 107.336 18.5449 107.569 19.9226 108.037C21.328 108.504 22.5128 109.274 23.4773 110.347L19.1373 114.348Z" fill="#55B963"/>
<path d="M29.9343 129.115C29.9068 129.858 30.0032 130.518 30.2236 131.095C30.4716 131.673 30.8023 132.168 31.2156 132.58C31.629 132.965 32.125 133.268 32.7036 133.488C33.2823 133.708 33.9161 133.818 34.605 133.818C35.845 133.818 36.9196 133.57 37.829 133.075C38.7659 132.553 39.5925 131.906 40.309 131.136L43.4916 133.818C42.1414 135.248 40.7085 136.265 39.193 136.87C37.6774 137.475 36.1343 137.778 34.5636 137.778C33.0756 137.778 31.6979 137.53 30.4303 137.035C29.1903 136.54 28.1432 135.839 27.289 134.931C26.4623 134.024 25.8561 132.938 25.4703 131.673C25.0845 130.38 25.0019 128.95 25.2223 127.383C25.4428 125.815 25.925 124.399 26.669 123.134C27.413 121.842 28.3361 120.742 29.4383 119.834C30.5405 118.927 31.7805 118.225 33.1583 117.73C34.5636 117.235 36.0103 116.988 37.4983 116.988C40.2814 116.988 42.3894 117.923 43.8223 119.793C45.2552 121.635 45.7374 124.289 45.2689 127.754L45.0623 129.115H29.9343ZM40.6396 125.403C40.8325 123.945 40.5432 122.804 39.7716 121.979C39.0001 121.127 37.829 120.7 36.2583 120.7C34.7703 120.7 33.5303 121.127 32.5383 121.979C31.5463 122.832 30.8574 123.973 30.4716 125.403H40.6396Z" fill="#55B963"/>
<path d="M53.6686 129.115C53.6411 129.858 53.7375 130.518 53.958 131.095C54.206 131.673 54.5366 132.168 54.95 132.58C55.3633 132.965 55.8593 133.268 56.438 133.488C57.0166 133.708 57.6504 133.818 58.3393 133.818C59.5793 133.818 60.654 133.57 61.5633 133.075C62.5002 132.553 63.3268 131.906 64.0433 131.136L67.2259 133.818C65.8757 135.248 64.4428 136.265 62.9273 136.87C61.4117 137.475 59.8686 137.778 58.298 137.778C56.81 137.778 55.4322 137.53 54.1646 137.035C52.9246 136.54 51.8775 135.839 51.0233 134.931C50.1966 134.024 49.5904 132.938 49.2047 131.673C48.8189 130.38 48.7362 128.95 48.9566 127.383C49.1771 125.815 49.6593 124.399 50.4033 123.134C51.1473 121.842 52.0704 120.742 53.1726 119.834C54.2749 118.927 55.5149 118.225 56.8926 117.73C58.298 117.235 59.7446 116.988 61.2326 116.988C64.0157 116.988 66.1237 117.923 67.5566 119.793C68.9895 121.635 69.4717 124.289 69.0033 127.754L68.7966 129.115H53.6686ZM64.374 125.403C64.5668 123.945 64.2775 122.804 63.506 121.979C62.7344 121.127 61.5633 120.7 59.9926 120.7C58.5046 120.7 57.2646 121.127 56.2726 121.979C55.2806 122.832 54.5917 123.973 54.206 125.403H64.374Z" fill="#55B963"/>
<path d="M84.6321 117.483H90.0054L92.3614 131.343H92.4441L98.3961 117.483H103.769L106.125 131.343H106.208L112.284 117.483H117.285L107.779 137.283H102.86L100.049 123.753H99.9667L93.8907 137.283H88.7654L84.6321 117.483Z" fill="#55B963"/>
<path d="M124.804 120.247H124.886C125.382 119.422 126.168 118.679 127.242 118.019C128.317 117.332 129.626 116.988 131.169 116.988C132.492 116.988 133.58 117.208 134.434 117.648C135.316 118.088 135.991 118.665 136.46 119.38C136.928 120.095 137.218 120.92 137.328 121.855C137.438 122.79 137.424 123.767 137.286 124.784L135.55 137.283H130.59L131.996 127.259C132.078 126.709 132.134 126.104 132.161 125.444C132.189 124.757 132.12 124.124 131.954 123.547C131.817 122.942 131.527 122.447 131.086 122.062C130.646 121.649 129.998 121.443 129.144 121.443C128.317 121.443 127.601 121.58 126.994 121.855C126.388 122.13 125.865 122.502 125.424 122.969C125.01 123.437 124.666 123.973 124.39 124.578C124.142 125.183 123.977 125.815 123.894 126.475L122.406 137.283H117.446L121.828 106.098H126.788L124.804 120.247Z" fill="#55B963"/>
<path d="M153.953 134.56H153.829C152.947 135.688 151.914 136.513 150.729 137.035C149.571 137.53 148.331 137.778 147.009 137.778C146.099 137.778 145.218 137.654 144.363 137.406C143.537 137.159 142.82 136.788 142.214 136.293C141.608 135.798 141.153 135.179 140.85 134.436C140.547 133.694 140.464 132.828 140.602 131.838C140.823 130.243 141.415 128.991 142.379 128.084C143.344 127.149 144.487 126.448 145.81 125.98C147.133 125.513 148.524 125.224 149.985 125.114C151.473 125.004 152.837 124.949 154.077 124.949H155.317L155.358 124.413C155.551 123.175 155.262 122.254 154.49 121.649C153.719 121.017 152.671 120.7 151.349 120.7C150.302 120.7 149.296 120.893 148.331 121.278C147.367 121.635 146.513 122.13 145.769 122.763L143.537 120.164C144.777 119.037 146.168 118.225 147.711 117.73C149.282 117.235 150.853 116.988 152.423 116.988C153.829 116.988 154.986 117.153 155.895 117.483C156.832 117.785 157.576 118.184 158.127 118.679C158.706 119.174 159.119 119.752 159.367 120.412C159.615 121.044 159.767 121.69 159.822 122.35C159.877 123.01 159.863 123.657 159.781 124.289C159.726 124.894 159.671 125.43 159.615 125.898L158.045 137.283H153.581L153.953 134.56ZM154.531 128.414H153.498C152.809 128.414 152.024 128.441 151.142 128.496C150.288 128.551 149.461 128.689 148.662 128.909C147.891 129.101 147.215 129.404 146.637 129.816C146.058 130.201 145.714 130.751 145.603 131.466C145.548 131.934 145.603 132.333 145.769 132.663C145.934 132.965 146.168 133.226 146.471 133.446C146.775 133.666 147.119 133.831 147.505 133.941C147.891 134.024 148.29 134.065 148.703 134.065C150.412 134.065 151.735 133.666 152.671 132.869C153.608 132.044 154.173 130.93 154.366 129.528L154.531 128.414Z" fill="#55B963"/>
<path d="M163.257 121.69L163.836 117.483H167.928L168.713 111.749H173.673L172.888 117.483H178.344L177.765 121.69H172.309L171.069 130.353C170.931 131.343 171 132.126 171.276 132.704C171.579 133.281 172.282 133.57 173.384 133.57C173.825 133.57 174.307 133.529 174.831 133.446C175.382 133.336 175.823 133.171 176.153 132.951L175.575 137.118C175.023 137.365 174.362 137.53 173.591 137.613C172.819 137.723 172.144 137.778 171.565 137.778C170.243 137.778 169.182 137.626 168.383 137.324C167.584 137.049 166.977 136.623 166.564 136.045C166.178 135.44 165.958 134.698 165.903 133.818C165.847 132.938 165.903 131.92 166.068 130.765L167.349 121.69H163.257Z" fill="#55B963"/>
<path d="M191.759 117.483H197.215L200.811 131.219H200.894L207.797 117.483H212.963L200.191 141.531C199.695 142.466 199.186 143.277 198.662 143.965C198.139 144.68 197.546 145.271 196.885 145.739C196.251 146.234 195.521 146.591 194.694 146.811C193.895 147.059 192.944 147.182 191.842 147.182C190.519 147.182 189.279 147.017 188.122 146.687L189.362 142.232C189.748 142.37 190.134 142.48 190.519 142.562C190.933 142.672 191.36 142.727 191.801 142.727C192.407 142.727 192.917 142.672 193.33 142.562C193.771 142.452 194.143 142.274 194.446 142.026C194.777 141.806 195.066 141.504 195.314 141.119C195.59 140.761 195.865 140.321 196.141 139.799L197.422 137.448L191.759 117.483Z" fill="#55B963"/>
<path d="M213.482 127.383C213.703 125.815 214.185 124.399 214.929 123.134C215.673 121.842 216.596 120.742 217.698 119.834C218.801 118.927 220.041 118.225 221.418 117.73C222.824 117.235 224.27 116.988 225.758 116.988C227.246 116.988 228.61 117.235 229.85 117.73C231.09 118.225 232.124 118.927 232.95 119.834C233.805 120.742 234.425 121.842 234.81 123.134C235.196 124.399 235.279 125.815 235.058 127.383C234.838 128.95 234.356 130.38 233.612 131.673C232.868 132.938 231.945 134.024 230.842 134.931C229.768 135.839 228.528 136.54 227.122 137.035C225.745 137.53 224.312 137.778 222.824 137.778C221.336 137.778 219.958 137.53 218.69 137.035C217.45 136.54 216.403 135.839 215.549 134.931C214.722 134.024 214.116 132.938 213.73 131.673C213.345 130.38 213.262 128.95 213.482 127.383ZM218.442 127.383C218.332 128.153 218.36 128.895 218.525 129.61C218.69 130.325 218.98 130.958 219.393 131.508C219.834 132.058 220.385 132.498 221.046 132.828C221.735 133.158 222.534 133.323 223.444 133.323C224.353 133.323 225.193 133.158 225.965 132.828C226.737 132.498 227.412 132.058 227.99 131.508C228.569 130.958 229.037 130.325 229.396 129.61C229.754 128.895 229.988 128.153 230.098 127.383C230.209 126.613 230.181 125.87 230.016 125.155C229.85 124.44 229.547 123.808 229.106 123.258C228.693 122.708 228.142 122.268 227.453 121.938C226.792 121.608 226.006 121.443 225.097 121.443C224.188 121.443 223.347 121.608 222.576 121.938C221.832 122.268 221.17 122.708 220.592 123.258C220.013 123.808 219.531 124.44 219.145 125.155C218.787 125.87 218.553 126.613 218.442 127.383Z" fill="#55B963"/>
<path d="M256.442 137.283H251.73L252.143 134.106H252.061C251.482 135.096 250.655 135.963 249.581 136.705C248.506 137.42 247.142 137.778 245.489 137.778C244.166 137.778 243.064 137.571 242.182 137.159C241.328 136.719 240.667 136.141 240.198 135.426C239.73 134.684 239.427 133.845 239.289 132.91C239.179 131.975 239.192 130.999 239.33 129.981L241.107 117.483H246.067L244.662 127.506C244.579 128.056 244.511 128.675 244.455 129.363C244.428 130.023 244.483 130.655 244.621 131.26C244.786 131.838 245.075 132.333 245.489 132.745C245.93 133.13 246.591 133.323 247.473 133.323C248.299 133.323 249.016 133.185 249.622 132.91C250.228 132.635 250.738 132.264 251.151 131.796C251.592 131.329 251.937 130.793 252.185 130.188C252.46 129.583 252.639 128.95 252.722 128.29L254.251 117.483H259.211L256.442 137.283Z" fill="#55B963"/>
<path d="M268.396 108.078H273.439L268.396 118.968H263.974L268.396 108.078Z" fill="#55B963"/>
<path d="M277.072 117.483H282.032L281.578 120.618H281.66C282.377 119.463 283.286 118.569 284.388 117.937C285.518 117.304 286.744 116.988 288.067 116.988C288.37 116.988 288.659 117.015 288.935 117.07C289.21 117.125 289.5 117.194 289.803 117.277L289.1 122.062C288.714 121.952 288.329 121.869 287.943 121.814C287.557 121.732 287.171 121.69 286.786 121.69C285.628 121.69 284.664 121.91 283.892 122.35C283.121 122.763 282.501 123.244 282.032 123.794C281.591 124.344 281.274 124.894 281.082 125.444C280.889 125.994 280.778 126.407 280.751 126.682L279.263 137.283H274.303L277.072 117.483Z" fill="#55B963"/>
<path d="M294.725 129.115C294.698 129.858 294.794 130.518 295.015 131.095C295.263 131.673 295.593 132.168 296.007 132.58C296.42 132.965 296.916 133.268 297.495 133.488C298.073 133.708 298.707 133.818 299.396 133.818C300.636 133.818 301.711 133.57 302.62 133.075C303.557 132.553 304.384 131.906 305.1 131.136L308.283 133.818C306.933 135.248 305.5 136.265 303.984 136.87C302.469 137.475 300.925 137.778 299.355 137.778C297.867 137.778 296.489 137.53 295.221 137.035C293.981 136.54 292.934 135.839 292.08 134.931C291.253 134.024 290.647 132.938 290.261 131.673C289.876 130.38 289.793 128.95 290.013 127.383C290.234 125.815 290.716 124.399 291.46 123.134C292.204 121.842 293.127 120.742 294.229 119.834C295.332 118.927 296.572 118.225 297.949 117.73C299.355 117.235 300.801 116.988 302.289 116.988C305.073 116.988 307.181 117.923 308.613 119.793C310.046 121.635 310.529 124.289 310.06 127.754L309.853 129.115H294.725ZM305.431 125.403C305.624 123.945 305.334 122.804 304.563 121.979C303.791 121.127 302.62 120.7 301.049 120.7C299.561 120.7 298.321 121.127 297.329 121.979C296.337 122.832 295.649 123.973 295.263 125.403H305.431Z" fill="#55B963"/>
<path d="M328.169 117.483H332.881L332.426 120.577H332.509C333.088 119.642 333.914 118.817 334.989 118.102C336.091 117.359 337.469 116.988 339.122 116.988C342.236 116.988 344.124 118.212 344.785 120.659C345.694 119.394 346.727 118.473 347.885 117.895C349.042 117.29 350.365 116.988 351.853 116.988C353.175 116.988 354.25 117.208 355.077 117.648C355.931 118.088 356.579 118.693 357.019 119.463C357.488 120.233 357.777 121.14 357.887 122.185C357.998 123.203 357.97 124.303 357.805 125.485L356.151 137.283H351.191L352.762 126.063C352.845 125.458 352.872 124.88 352.845 124.33C352.817 123.753 352.693 123.258 352.473 122.845C352.252 122.405 351.922 122.062 351.481 121.814C351.04 121.567 350.447 121.443 349.703 121.443C348.932 121.443 348.257 121.594 347.678 121.897C347.099 122.172 346.603 122.557 346.19 123.052C345.804 123.519 345.488 124.069 345.24 124.702C344.992 125.307 344.826 125.925 344.743 126.558L343.256 137.283H338.296L339.949 125.485C340.114 124.248 339.976 123.272 339.536 122.557C339.122 121.814 338.309 121.443 337.097 121.443C336.27 121.443 335.554 121.58 334.948 121.855C334.341 122.13 333.818 122.502 333.377 122.969C332.964 123.437 332.619 123.973 332.344 124.578C332.096 125.183 331.93 125.815 331.848 126.475L330.36 137.283H325.4L328.169 117.483Z" fill="#55B963"/>
<path d="M364.423 117.483H369.383L366.614 137.283H361.654L364.423 117.483ZM364.671 110.759C364.781 109.962 365.167 109.274 365.828 108.697C366.517 108.092 367.316 107.789 368.226 107.789C369.135 107.789 369.865 108.078 370.416 108.656C370.967 109.206 371.174 109.907 371.036 110.759C370.899 111.612 370.485 112.327 369.796 112.904C369.107 113.454 368.308 113.729 367.399 113.729C366.49 113.729 365.773 113.441 365.25 112.863C364.754 112.258 364.561 111.557 364.671 110.759Z" fill="#55B963"/>
<path d="M384.873 122.969C384.102 121.622 382.903 120.948 381.277 120.948C380.947 120.948 380.602 120.989 380.244 121.072C379.886 121.154 379.555 121.278 379.252 121.443C378.949 121.608 378.687 121.828 378.467 122.103C378.274 122.378 378.15 122.694 378.095 123.052C378.012 123.657 378.205 124.097 378.673 124.372C379.169 124.647 379.803 124.88 380.575 125.073C381.346 125.265 382.173 125.472 383.055 125.692C383.964 125.884 384.777 126.2 385.493 126.64C386.237 127.053 386.816 127.63 387.229 128.373C387.67 129.115 387.794 130.133 387.601 131.425C387.436 132.608 387.036 133.611 386.403 134.436C385.796 135.234 385.052 135.88 384.171 136.375C383.289 136.87 382.324 137.228 381.277 137.448C380.23 137.668 379.197 137.778 378.177 137.778C376.634 137.778 375.243 137.558 374.003 137.118C372.763 136.678 371.715 135.88 370.861 134.725L374.623 131.631C375.174 132.346 375.766 132.938 376.4 133.405C377.061 133.845 377.915 134.065 378.963 134.065C379.321 134.065 379.693 134.024 380.079 133.941C380.492 133.859 380.878 133.721 381.236 133.529C381.594 133.336 381.897 133.103 382.145 132.828C382.393 132.525 382.545 132.181 382.6 131.796C382.71 131.109 382.517 130.6 382.021 130.27C381.553 129.94 380.933 129.679 380.161 129.486C379.39 129.266 378.549 129.074 377.64 128.909C376.758 128.716 375.945 128.428 375.201 128.043C374.457 127.63 373.865 127.066 373.424 126.352C373.011 125.637 372.9 124.647 373.093 123.382C373.259 122.282 373.617 121.333 374.168 120.535C374.747 119.71 375.449 119.037 376.276 118.514C377.103 117.992 378.012 117.607 379.004 117.359C379.996 117.112 380.988 116.988 381.98 116.988C383.303 116.988 384.57 117.222 385.783 117.689C387.023 118.129 387.959 118.899 388.593 119.999L384.873 122.969Z" fill="#55B963"/>
<path d="M403.239 122.969C402.468 121.622 401.269 120.948 399.643 120.948C399.312 120.948 398.968 120.989 398.61 121.072C398.252 121.154 397.921 121.278 397.618 121.443C397.315 121.608 397.053 121.828 396.832 122.103C396.64 122.378 396.516 122.694 396.46 123.052C396.378 123.657 396.571 124.097 397.039 124.372C397.535 124.647 398.169 124.88 398.94 125.073C399.712 125.265 400.539 125.472 401.42 125.692C402.33 125.884 403.143 126.2 403.859 126.64C404.603 127.053 405.182 127.63 405.595 128.373C406.036 129.115 406.16 130.133 405.967 131.425C405.802 132.608 405.402 133.611 404.768 134.436C404.162 135.234 403.418 135.88 402.536 136.375C401.655 136.87 400.69 137.228 399.643 137.448C398.596 137.668 397.563 137.778 396.543 137.778C395 137.778 393.608 137.558 392.368 137.118C391.128 136.678 390.081 135.88 389.227 134.725L392.988 131.631C393.54 132.346 394.132 132.938 394.766 133.405C395.427 133.845 396.281 134.065 397.328 134.065C397.687 134.065 398.059 134.024 398.444 133.941C398.858 133.859 399.244 133.721 399.602 133.529C399.96 133.336 400.263 133.103 400.511 132.828C400.759 132.525 400.911 132.181 400.966 131.796C401.076 131.109 400.883 130.6 400.387 130.27C399.919 129.94 399.299 129.679 398.527 129.486C397.756 129.266 396.915 129.074 396.006 128.909C395.124 128.716 394.311 128.428 393.567 128.043C392.823 127.63 392.231 127.066 391.79 126.352C391.376 125.637 391.266 124.647 391.459 123.382C391.624 122.282 391.983 121.333 392.534 120.535C393.112 119.71 393.815 119.037 394.642 118.514C395.468 117.992 396.378 117.607 397.37 117.359C398.362 117.112 399.354 116.988 400.346 116.988C401.668 116.988 402.936 117.222 404.148 117.689C405.388 118.129 406.325 118.899 406.959 119.999L403.239 122.969Z" fill="#55B963"/>
<path d="M411.892 117.483H416.852L414.082 137.283H409.122L411.892 117.483ZM412.14 110.759C412.25 109.962 412.636 109.274 413.297 108.697C413.986 108.092 414.785 107.789 415.694 107.789C416.604 107.789 417.334 108.078 417.885 108.656C418.436 109.206 418.643 109.907 418.505 110.759C418.367 111.612 417.954 112.327 417.265 112.904C416.576 113.454 415.777 113.729 414.868 113.729C413.958 113.729 413.242 113.441 412.718 112.863C412.222 112.258 412.029 111.557 412.14 110.759Z" fill="#55B963"/>
<path d="M422.546 117.483H427.258L426.803 120.659H426.886C427.492 119.669 428.333 118.817 429.407 118.102C430.482 117.359 431.846 116.988 433.499 116.988C434.822 116.988 435.91 117.208 436.765 117.648C437.646 118.088 438.321 118.665 438.79 119.38C439.258 120.095 439.548 120.92 439.658 121.855C439.768 122.79 439.754 123.767 439.617 124.784L437.881 137.283H432.921L434.326 127.259C434.409 126.709 434.464 126.104 434.491 125.444C434.519 124.757 434.45 124.124 434.285 123.547C434.147 122.942 433.857 122.447 433.417 122.062C432.976 121.649 432.328 121.443 431.474 121.443C430.647 121.443 429.931 121.58 429.325 121.855C428.718 122.13 428.195 122.502 427.754 122.969C427.341 123.437 426.996 123.973 426.721 124.578C426.473 125.183 426.307 125.815 426.225 126.475L424.737 137.283H419.777L422.546 117.483Z" fill="#55B963"/>
<path d="M466.699 117.483L464.178 135.509C463.93 137.296 463.475 138.905 462.814 140.335C462.18 141.792 461.326 143.016 460.251 144.006C459.204 145.024 457.936 145.807 456.448 146.357C454.96 146.907 453.252 147.182 451.323 147.182C449.477 147.182 447.754 146.949 446.156 146.481C444.586 146.014 443.18 145.161 441.94 143.924L445.495 139.881C446.349 140.789 447.272 141.49 448.264 141.985C449.284 142.48 450.496 142.727 451.902 142.727C453.086 142.727 454.106 142.562 454.96 142.232C455.814 141.902 456.517 141.449 457.068 140.871C457.647 140.294 458.102 139.593 458.432 138.768C458.763 137.97 458.997 137.076 459.135 136.086L459.3 134.643H459.218C458.363 135.605 457.316 136.334 456.076 136.829C454.836 137.296 453.596 137.53 452.356 137.53C450.868 137.53 449.546 137.269 448.388 136.746C447.258 136.196 446.322 135.468 445.578 134.56C444.861 133.653 444.351 132.58 444.048 131.343C443.745 130.105 443.69 128.785 443.883 127.383C444.076 125.925 444.489 124.564 445.123 123.299C445.757 122.034 446.556 120.934 447.52 119.999C448.512 119.064 449.642 118.335 450.91 117.813C452.205 117.263 453.624 116.988 455.167 116.988C456.572 116.988 457.84 117.263 458.97 117.813C460.099 118.363 460.94 119.243 461.491 120.453H461.574L461.987 117.483H466.699ZM455.539 121.443C454.657 121.443 453.83 121.594 453.059 121.897C452.315 122.172 451.654 122.57 451.075 123.093C450.496 123.588 450 124.207 449.587 124.949C449.201 125.664 448.953 126.462 448.843 127.341C448.733 128.139 448.774 128.881 448.967 129.569C449.187 130.256 449.518 130.861 449.959 131.384C450.4 131.906 450.951 132.319 451.612 132.621C452.301 132.924 453.059 133.075 453.886 133.075C454.795 133.075 455.635 132.924 456.407 132.621C457.178 132.319 457.854 131.92 458.432 131.425C459.011 130.903 459.479 130.284 459.838 129.569C460.223 128.854 460.485 128.084 460.623 127.259C460.843 125.527 460.499 124.124 459.59 123.052C458.708 121.979 457.358 121.443 455.539 121.443Z" fill="#55B963"/>
<path d="M469.918 134.395C470.056 133.515 470.483 132.759 471.199 132.126C471.943 131.494 472.77 131.178 473.679 131.178C474.561 131.178 475.291 131.48 475.87 132.085C476.449 132.69 476.683 133.433 476.573 134.313C476.435 135.193 475.994 135.949 475.25 136.581C474.534 137.214 473.721 137.53 472.811 137.53C472.37 137.53 471.957 137.448 471.571 137.283C471.213 137.118 470.896 136.898 470.621 136.623C470.345 136.348 470.138 136.018 470.001 135.633C469.89 135.248 469.863 134.835 469.918 134.395Z" fill="#55B963"/>
<path d="M482.148 134.395C482.286 133.515 482.713 132.759 483.43 132.126C484.174 131.494 485 131.178 485.91 131.178C486.792 131.178 487.522 131.48 488.1 132.085C488.679 132.69 488.913 133.433 488.803 134.313C488.665 135.193 488.224 135.949 487.48 136.581C486.764 137.214 485.951 137.53 485.042 137.53C484.601 137.53 484.188 137.448 483.802 137.283C483.444 137.118 483.127 136.898 482.851 136.623C482.576 136.348 482.369 136.018 482.231 135.633C482.121 135.248 482.093 134.835 482.148 134.395Z" fill="#55B963"/>
<path d="M494.379 134.395C494.517 133.515 494.944 132.759 495.66 132.126C496.404 131.494 497.231 131.178 498.14 131.178C499.022 131.178 499.752 131.48 500.331 132.085C500.91 132.69 501.144 133.433 501.034 134.313C500.896 135.193 500.455 135.949 499.711 136.581C498.994 137.214 498.182 137.53 497.272 137.53C496.831 137.53 496.418 137.448 496.032 137.283C495.674 137.118 495.357 136.898 495.082 136.623C494.806 136.348 494.599 136.018 494.462 135.633C494.351 135.248 494.324 134.835 494.379 134.395Z" fill="#55B963"/>
<path d="M119.379 0.496969H136.457L154.863 49.9262L173.255 0.496969H189.865L161.492 71.1703H147.902L119.379 0.496969Z" fill="white"/>
<path d="M201.507 0.496969H216.984V70.6735H201.507V0.496969Z" fill="white"/>
<path d="M234.575 0.496969H266.737C275.691 0.496969 282.622 3.01134 287.243 7.61851C289.273 9.75316 290.854 12.272 291.891 15.0261C292.928 17.7802 293.402 20.7137 293.283 23.6533V23.864C293.283 35.1862 287.152 42.3078 278.183 45.6051L295.382 70.6735H277.262L262.162 48.2098H249.992V70.6735H234.575V0.496969ZM265.741 34.584C273.291 34.584 277.594 30.5791 277.594 24.662V24.4663C277.594 17.8416 272.974 14.4389 265.439 14.4389H250.052V34.584H265.741Z" fill="white"/>
<path d="M307.96 0.496969H323.437V70.6735H307.96V0.496969Z" fill="white"/>
<path d="M341.013 0.496969H357.698L376.195 30.1726L394.692 0.496969H411.378V70.6735H396.021V24.8578L376.21 54.8345H375.818L356.203 25.1438V70.6735H341.013V0.496969Z" fill="white"/>
<path d="M452.404 0H466.688L496.888 70.6734H480.655L474.223 54.9247H444.461L438.029 70.6734H422.25L452.404 0ZM468.696 41.2989L459.35 18.5491L450.003 41.2989H468.696Z" fill="white"/>
<path d="M115.045 36.3155C115.045 36.3155 104.566 53.0127 88.2433 63.4165C71.9204 73.8203 59.3424 73.474 59.3424 73.474V60.33C59.3424 60.33 81.2974 56.9875 81.2974 36.3155C81.2974 15.6435 60.3993 15.4478 60.3993 15.4478L60.1577 1.65636C60.1577 1.65636 71.9053 -0.451494 89.9193 10.0878C100.638 16.2547 109.358 25.357 115.045 36.3155Z" fill="url(#paint0_radial_881_2)"/>
<path d="M57.1078 70.8697V67.4821L54.1633 65.7808L51.234 67.4821V70.8697L54.1633 72.556L57.1078 70.8697Z" fill="#55BA63"/>
<path d="M44.424 70.4779V67.8582L42.1439 66.5483L39.8638 67.8582V70.4779L42.1439 71.7878L44.424 70.4779Z" fill="#55BA63"/>
<path d="M54.1633 62.0919V55.1661L48.1536 51.7032L42.1439 55.1661V62.0919L48.1536 65.5548L54.1633 62.0919Z" fill="#55BA63"/>
<path d="M39.2296 60.4202V56.8369L36.119 55.0452L33.0085 56.8369V60.4202L36.119 62.2119L39.2296 60.4202Z" fill="#55BA63"/>
<path d="M34.1559 50.423V45.7707L30.1092 43.437L26.0625 45.7707V50.423L30.1092 52.7567L34.1559 50.423Z" fill="#55BA63"/>
<path d="M21.2157 49.8964V46.298L18.0749 44.4912L14.9493 46.298V49.8964L18.0749 51.7031L21.2157 49.8964Z" fill="#55BA63"/>
<path d="M18.0747 41.028V34.1022L12.065 30.6393L6.05532 34.1022V41.028L12.065 44.4909L18.0747 41.028Z" fill="#55BA63"/>
<path d="M39.2296 39.3571V35.7738L36.119 33.9821L33.0085 35.7738V39.3571L36.119 41.1488L39.2296 39.3571Z" fill="#55BA63"/>
<path d="M21.563 28.5617V24.9934L18.4524 23.2017L15.3419 24.9934V28.5617L18.4524 30.3684L21.563 28.5617Z" fill="#55BA63"/>
<path d="M34.7902 29.7209V24.3308L30.1093 21.6358L25.4284 24.3308V29.7209L30.1093 32.416L34.7902 29.7209Z" fill="#55BA63"/>
<path d="M39.2598 18.2936V14.6801L36.119 12.8734L32.9934 14.6801V18.2936L36.119 20.1003L39.2598 18.2936Z" fill="#55BA63"/>
<path d="M51.0981 17.9624V14.5748L48.1537 12.8734L45.2092 14.5748V17.9624L48.1537 19.6637L51.0981 17.9624Z" fill="#55BA63"/>
<path d="M57.1076 8.13039V3.77917L53.3327 1.59604L49.5578 3.77917V8.13039L53.3327 10.2985L57.1076 8.13039Z" fill="#55BA63"/>
<path d="M60.9128 48.6764L70.8635 42.7593L70.7276 31.2113L60.9581 37.0079L60.9128 48.6764Z" fill="#7DC242"/>
<path d="M60.9581 37.0079L70.7276 31.2113L60.5956 25.5652L50.6449 31.4823L60.9581 37.0079Z" fill="#CBDB2A"/>
<path d="M50.6449 31.4823L50.7808 43.0306L60.9128 48.6764L60.9581 37.0079L50.6449 31.4823Z" fill="#A4D178"/>
<defs>
<radialGradient id="paint0_radial_881_2" cx="0" cy="0" r="1" gradientUnits="userSpaceOnUse" gradientTransform="translate(169.374 72.9679) rotate(180) scale(343.503 127.668)">
<stop offset="0.05" stop-color="#B9D877"/>
<stop offset="1" stop-color="#32B44A"/>
</radialGradient>
</defs>
</svg>
